<?xml version="1.0" encoding="utf-8"?>
<!-- Generator: Adobe Illustrator 22.1.0, SVG Export Plug-In . SVG Version: 6.00 Build 0)  -->
<svg version="1.1" id="Layer_1" xmlns="http://www.w3.org/2000/svg" xmlns:xlink="http://www.w3.org/1999/xlink" x="0px" y="0px"
	 viewBox="0 0 998.4 577" style="enable-background:new 0 0 998.4 577;" xml:space="preserve">
<style type="text/css">
	.st0{fill:none;}
	.st1{fill:#FFFFFF;stroke:#000000;stroke-width:2;stroke-dasharray:100;}
	.st2{stroke:#000000;stroke-width:2;stroke-dasharray:100;}
	.st3{fill:#6699CC;stroke:#6699CC;stroke-width:2;stroke-dasharray:100;}
	.st4{fill:none;stroke:#000000;stroke-width:2;}
	.st5{fill:#FFFFFF;}
	.st6{font-family:'Helvetica';}
	.st7{font-size:6.957px;}
	.st8{fill:#AACCFF;}
	.st9{fill:#AACCFF;stroke:#000000;stroke-width:2;}
</style>
<g marker-end="url(#marker0)">
	<path class="st0" d=""/>
	<path class="st1" d="M434.4,228.8l3.8,4.6l-6.6,0.6L434.4,228.8"/>
	<path class="st1" d="M268.8-11.2"/>
</g>
<path class="st0" d=""/>
<path class="st2" d="M147.6,403.2"/>
<path class="st0" d=""/>
<path class="st1" d="M77.1,533.4"/>
<path class="st0" d=""/>
<path class="st2" d="M323.2,466.3"/>
<path class="st0" d=""/>
<path class="st1" d="M99,515.8"/>
<path class="st0" d=""/>
<path class="st1" d="M64.9,515"/>
<g marker-end="url(#marker35)">
	<path class="st0" d=""/>
	<path class="st2" d="M495,90.9l6,0.5l-4.1,5.2L495,90.9"/>
	<path class="st2" d="M303.9,68.7"/>
</g>
<path class="st0" d=""/>
<path class="st1" d="M77.7,500.3"/>
<path class="st0" d=""/>
<path class="st1" d="M85.5,533.7"/>
<path class="st0" d=""/>
<path class="st1" d="M94.9,505.7"/>
<path class="st0" d=""/>
<path class="st1" d="M65.7,522.4"/>
<g marker-end="url(#marker42)">
	<path class="st0" d=""/>
	<path class="st1" d="M221.2,180l-5.9-1.2l4.7-4.7L221.2,180"/>
	<path class="st1" d="M145.2,17.1"/>
</g>
<path class="st0" d=""/>
<path class="st1" d="M69.7,528.9"/>
<path class="st0" d=""/>
<path class="st1" d="M92.1,503.1"/>
<g marker-end="url(#marker49)">
	<path class="st0" d=""/>
	<path class="st1" d="M238.8,171.4l-3.9-4.6l6.6-0.8L238.8,171.4"/>
	<path class="st1" d="M155.4,22"/>
</g>
<g marker-end="url(#marker51)">
	<path class="st0" d=""/>
	<path class="st1" d="M213.6,193.4l-5.6,2l1.7-6.4L213.6,193.4"/>
	<path class="st1" d="M140.8,9.3"/>
</g>
<path class="st0" d=""/>
<path class="st2" d="M203.8,635.6"/>
<path class="st0" d=""/>
<path class="st2" d="M94,529.1"/>
<path class="st0" d=""/>
<path class="st2" d="M175.6,418.4"/>
<g marker-end="url(#marker71)">
	<path class="st0" d=""/>
	<path class="st1" d="M271.4,380l-5.6,2l1.7-6.4L271.4,380"/>
	<path class="st1" d="M174.3-98.9"/>
</g>
<g marker-end="url(#marker75)">
	<path class="st0" d=""/>
	<path class="st1" d="M278.9,408l-1.2,5.8l-4.6-4.7L278.9,408"/>
	<path class="st1" d="M178.6-115.2"/>
</g>
<g marker-end="url(#marker83)">
	<path class="st0" d=""/>
	<path class="st1" d="M500.9,68l4.4-4l1,6.5L500.9,68"/>
	<path class="st1" d="M307.3,81.9"/>
</g>
<g marker-end="url(#marker88)">
	<path class="st0" d=""/>
	<path class="st1" d="M779.1,225.7l3.8-4.6l1.9,6.4L779.1,225.7"/>
	<path class="st1" d="M468.6-9.5"/>
</g>
<path class="st0" d=""/>
<path class="st2" d="M320.5,561"/>
<path class="st0" d=""/>
<path class="st2" d="M335.3,515.4"/>
<g marker-end="url(#marker93)">
	<path class="st0" d=""/>
	<path class="st1" d="M841.9,181.4l-5.9-0.8l4.4-5L841.9,181.4"/>
	<path class="st1" d="M505,16.2"/>
</g>
<g marker-end="url(#marker95)">
	<path class="st0" d=""/>
	<path class="st1" d="M472.5,323.9l5.1-3l-0.4,6.6L472.5,323.9"/>
	<path class="st1" d="M290.9-66.4"/>
</g>
<g marker-end="url(#marker97)">
	<path class="st0" d=""/>
	<path class="st1" d="M529.9,454.6l4.3,4.2l-6.5,1.4L529.9,454.6"/>
	<path class="st1" d="M324.1-142.1"/>
</g>
<g marker-end="url(#marker98)">
	<path class="st0" d=""/>
	<path class="st1" d="M435.8,351l2,5.6l-6.4-1.6L435.8,351"/>
	<path class="st1" d="M269.6-82.1"/>
</g>
<g marker-end="url(#marker99)">
	<path class="st0" d=""/>
	<path class="st1" d="M460.1,191.1l3.9-4.6l1.8,6.4L460.1,191.1"/>
	<path class="st1" d="M283.6,10.6"/>
</g>
<g marker-end="url(#marker101)">
	<path class="st0" d=""/>
	<path class="st1" d="M461.2,345.6l5.7,1.9l-5.2,4.1L461.2,345.6"/>
	<path class="st1" d="M284.3-79"/>
</g>
<g marker-end="url(#marker102)">
	<path class="st0" d=""/>
	<path class="st1" d="M416.1,334.5l-3.2,5.1l-2.7-6L416.1,334.5"/>
	<path class="st1" d="M258.1-72.6"/>
</g>
<path class="st0" d=""/>
<path class="st2" d="M-42.5,383.8"/>
<path class="st0" d=""/>
<path class="st1" d="M-82.9,306.6"/>
<path class="st0" d=""/>
<path class="st1" d="M70.4,504.2"/>
<path class="st0" d=""/>
<path class="st2" d="M98.4,520"/>
<g marker-end="url(#marker47)">
	<path class="st0" d=""/>
	<path class="st1" d="M213.8,208.9l-3.9,4.5l-1.8-6.4L213.8,208.9"/>
	<path class="st1" d="M140.9,0.3"/>
</g>
<g marker-end="url(#marker100)">
	<path class="st0" d=""/>
	<path class="st2" d="M271.8,200.6l4.9-3.4l0.1,6.6L271.8,200.6"/>
	<path class="st2" d="M174.5,5.1"/>
</g>
<g marker-end="url(#marker85)">
	<path class="st0" d=""/>
	<path class="st1" d="M444.8,84.9l-3.2,5.1l-2.7-6L444.8,84.9"/>
	<path class="st1" d="M274.8,72.2"/>
</g>
<g marker-end="url(#marker73)">
	<path class="st0" d=""/>
	<path class="st1" d="M443.1,65.3l-5.6,2l1.7-6.4L443.1,65.3"/>
	<path class="st1" d="M273.8,83.5"/>
</g>
<g marker-end="url(#marker90)">
	<path class="st0" d=""/>
	<path class="st2" d="M725.1,219.4l-6,0.3l3.4-5.7L725.1,219.4"/>
	<path class="st2" d="M437.3-5.8"/>
</g>
<g marker-end="url(#marker81)">
	<path class="st0" d=""/>
	<path class="st1" d="M787.7,379.2l3.2,5l-6.6-0.1L787.7,379.2"/>
	<path class="st1" d="M473.6-98.4"/>
</g>
<g marker-end="url(#marker79)">
	<path class="st0" d=""/>
	<path class="st1" d="M811.8,367.6l6,0.4l-4,5.3L811.8,367.6"/>
	<path class="st1" d="M487.6-91.7"/>
</g>
<g marker-end="url(#marker109)">
	<path class="st0" d=""/>
	<path class="st3" d="M722.1,241.2l-3.5,4.9l-2.3-6.2L722.1,241.2"/>
	<path class="st3" d="M435.5-18.4"/>
</g>
<g marker-end="url(#marker91)">
	<path class="st0" d=""/>
	<path class="st1" d="M759.9,262.2l4.7,3.7l-6.3,2L759.9,262.2"/>
	<path class="st1" d="M457.5-30.6"/>
</g>
<g marker-end="url(#marker96)">
	<path class="st0" d=""/>
	<path class="st1" d="M552,434.1l5.7-1.8l-1.9,6.3L552,434.1"/>
	<path class="st1" d="M337-130.3"/>
</g>
<g transform="translate(1200.2469758604561,1012.8407241382496)">
	<path class="st4" d="M-488.8-765.5h3.2v2.4l-2.8,0l2.8,0v2.4h-3.2"/>
</g>
<g transform="translate(611.622844350132,1194.6575982044842)">
	<g id="_x31_02">
		<rect x="-263.9" y="-847.9" class="st5" width="47.5" height="16.2">
		<title>Subclass of</title>
		</rect>
		<text transform="matrix(1 0 0 1 -258.0926 -837.0297)" class="st6 st7">Subclass of</text>
	</g>
</g>
<g transform="translate(804.4986679209426,1227.6854875142885)">
	<g id="_x31_01">
		<rect x="-344.9" y="-861.8" class="st5" width="47.5" height="16.2">
		<title>Subclass of</title>
		</rect>
		<text transform="matrix(1 0 0 1 -339.149 -850.9102)" class="st6 st7">Subclass of</text>
	</g>
</g>
<g transform="translate(842.3344047596639,889.5988114944411)">
	<g id="_x39_9">
		<rect x="-360.8" y="-719.7" class="st5" width="47.5" height="16.2">
		<title>Subclass of</title>
		</rect>
		<text transform="matrix(1 0 0 1 -355.0502 -708.8283)" class="st6 st7">Subclass of</text>
	</g>
</g>
<g transform="translate(707.4407678758273,1248.3075932428883)">
	<g id="_x39_8">
		<rect x="-304.1" y="-870.5" class="st5" width="47.5" height="16.2">
		<title>Subclass of</title>
		</rect>
		<text transform="matrix(1 0 0 1 -298.3607 -859.5762)" class="st6 st7">Subclass of</text>
	</g>
</g>
<g transform="translate(895.8802418429009,1418.2206794413933)">
	<g id="_x39_7">
		<rect x="-383.3" y="-941.9" class="st5" width="47.5" height="16.2">
		<title>Subclass of</title>
		</rect>
		<text transform="matrix(1 0 0 1 -377.5531 -930.9824)" class="st6 st7">Subclass of</text>
	</g>
</g>
<g transform="translate(886.4333086991085,1146.92194316088)">
	<g id="_x39_5">
		<rect x="-379.4" y="-827.9" class="st5" width="47.5" height="16.2">
		<title>Subclass of</title>
		</rect>
		<text transform="matrix(1 0 0 1 -373.5827 -816.9689)" class="st6 st7">Subclass of</text>
	</g>
</g>
<g transform="translate(1382.0553428897144,859.9046268876016)">
	<g id="_x39_3">
		<rect x="-587.7" y="-707.3" class="st5" width="47.5" height="16.2">
		<title>Subclass of</title>
		</rect>
		<text transform="matrix(1 0 0 1 -581.8698 -696.3489)" class="st6 st7">Subclass of</text>
	</g>
</g>
<g transform="translate(1363.5901695104294,957.6983114824354)">
	<g id="_x38_8">
		<rect x="-579.9" y="-748.4" class="st5" width="47.5" height="16.2">
		<title>Subclass of</title>
		</rect>
		<text transform="matrix(1 0 0 1 -574.1097 -737.4473)" class="st6 st7">Subclass of</text>
	</g>
</g>
<g transform="translate(906.3286699498261,688.68990061918)">
	<g id="_x38_3">
		<rect x="-387.7" y="-635.3" class="st5" width="47.5" height="16.2">
		<title>Subclass of</title>
		</rect>
		<text transform="matrix(1 0 0 1 -381.9439 -624.3954)" class="st6 st7">Subclass of</text>
	</g>
</g>
<g transform="translate(402.64202006344806,1334.4888702313451)">
	<g id="_x37_5">
		<rect x="-176.1" y="-906.7" class="st5" width="47.5" height="16.2">
		<title>Subclass of</title>
		</rect>
		<text transform="matrix(1 0 0 1 -170.268 -895.7946)" class="st6 st7">Subclass of</text>
	</g>
</g>
<g transform="translate(356.60131029488457,1216.8026391841577)">
	<g id="_x37_1">
		<rect x="-156.7" y="-857.2" class="st5" width="47.5" height="16.2">
		<title>Subclass of</title>
		</rect>
		<text transform="matrix(1 0 0 1 -150.9197 -846.3363)" class="st6 st7">Subclass of</text>
	</g>
</g>
<g transform="translate(247.4822218838425,892.5354557935249)">
	<g id="_x35_1">
		<rect x="-110.8" y="-721" class="st5" width="47.5" height="16.2">
		<title>Subclass of</title>
		</rect>
		<text transform="matrix(1 0 0 1 -105.0618 -710.0618)" class="st6 st7">Subclass of</text>
	</g>
</g>
<g transform="translate(374.3406633655546,804.6743276030636)">
	<g id="_x34_9">
		<rect x="-164.2" y="-684" class="st5" width="47.5" height="16.2">
		<title>Subclass of</title>
		</rect>
		<text transform="matrix(1 0 0 1 -158.3744 -673.1382)" class="st6 st7">Subclass of</text>
	</g>
</g>
<g transform="translate(301.03202502902525,841.9400448655759)">
	<g id="_x34_2">
		<rect x="-133.4" y="-699.7" class="st5" width="47.5" height="16.2">
		<title>Subclass of</title>
		</rect>
		<text transform="matrix(1 0 0 1 -127.5662 -688.7994)" class="st6 st7">Subclass of</text>
	</g>
</g>
<g transform="translate(725.1497917104093,1032.468662702495)">
	<g id="_x30_">
		<rect x="-311.6" y="-779.8" class="st5" width="47.5" height="16.2">
		<title>Subclass of</title>
		</rect>
		<text transform="matrix(1 0 0 1 -305.8031 -768.8695)" class="st6 st7">Subclass of</text>
	</g>
</g>
<g transform="translate(876.856832060969,780.3564126275494)">
	<g id="_x33_5">
		<rect x="-374.5" y="-673.8" class="st8" width="45.8" height="16.2">
		<title>has texture</title>
		</rect>
		<text transform="matrix(1 0 0 1 -368.7855 -662.9189)" class="st6 st7">has texture</text>
	</g>
</g>
<g transform="translate(255.87184469220574,966.8198529805594)">
	<g id="_x34_7">
		<rect x="-114.4" y="-752.2" class="st5" width="47.5" height="16.2">
		<title>Subclass of</title>
		</rect>
		<text transform="matrix(1 0 0 1 -108.5877 -741.2803)" class="st6 st7">Subclass of</text>
	</g>
</g>
<g transform="translate(551.9922349432297,927.6844603890966)">
	<g id="_x31_00">
		<rect x="-241.7" y="-735.7" class="st8" width="53.3" height="16.2">
		<title>has hair color</title>
		</rect>
		<text transform="matrix(1 0 0 1 -235.9317 -724.8339)" class="st6 st7">has hair color</text>
	</g>
</g>
<g transform="translate(658.3247533138365,765.1792305678471)">
	<g id="_x38_5">
		<rect x="-283.5" y="-667.5" class="st5" width="47.5" height="16.2">
		<title>Subclass of</title>
		</rect>
		<text transform="matrix(1 0 0 1 -277.7193 -656.5406)" class="st6 st7">Subclass of</text>
	</g>
</g>
<g transform="translate(673.9356541572407,679.4949018363998)">
	<g id="_x37_3">
		<rect x="-290.1" y="-631.4" class="st5" width="47.5" height="16.2">
		<title>Subclass of</title>
		</rect>
		<text transform="matrix(1 0 0 1 -284.2804 -620.531)" class="st6 st7">Subclass of</text>
	</g>
</g>
<g transform="translate(1119.1087396174232,902.9212137363596)">
	<g id="_x39_0">
		<rect x="-476.3" y="-725.3" class="st8" width="45.8" height="16.2">
		<title>has haircut</title>
		</rect>
		<text transform="matrix(1 0 0 1 -470.3988 -714.4271)" class="st6 st7">has haircut</text>
	</g>
</g>
<g transform="translate(1328.4434340387284,1287.4614707147389)">
	<g id="_x38_1">
		<rect x="-565.1" y="-886.9" class="st5" width="47.5" height="16.2">
		<title>Subclass of</title>
		</rect>
		<text transform="matrix(1 0 0 1 -559.339 -876.0308)" class="st6 st7">Subclass of</text>
	</g>
</g>
<g transform="translate(1436.98487740102,1267.1558573927314)">
	<g id="_x37_9">
		<rect x="-610.7" y="-878.4" class="st5" width="47.5" height="16.2">
		<title>Subclass of</title>
		</rect>
		<text transform="matrix(1 0 0 1 -604.9536 -867.4977)" class="st6 st7">Subclass of</text>
	</g>
</g>
<g transform="translate(1075.1524223844376,1033.4970831040484)">
	<g id="_x31_09">
		<rect x="-457.8" y="-780.2" class="st8" width="45.8" height="16.2">
		<title>has haircut</title>
		</rect>
		<text transform="matrix(1 0 0 1 -451.9259 -769.3018)" class="st6 st7">has haircut</text>
	</g>
</g>
<g transform="translate(1298.2073197796967,1086.0058542301858)">
	<g id="_x39_1">
		<rect x="-552.4" y="-802.3" class="st5" width="47.5" height="16.2">
		<title>Subclass of</title>
		</rect>
		<text transform="matrix(1 0 0 1 -546.6321 -791.3687)" class="st6 st7">Subclass of</text>
	</g>
</g>
<g transform="translate(988.8832731137329,1351.0416907075517)">
	<g id="_x39_6">
		<rect x="-422.4" y="-913.7" class="st5" width="47.5" height="16.2">
		<title>Subclass of</title>
		</rect>
		<text transform="matrix(1 0 0 1 -416.6372 -902.7507)" class="st6 st7">Subclass of</text>
	</g>
</g>
<g id="_x31_" transform="translate(734.9100491242106,1138.5445046555517)">
	<circle class="st9" cx="-291.9" cy="-816.2" r="29">
	<title>facial hair</title>
	</circle>
	<text transform="matrix(1 0 0 1 -306.8104 -813.4479)" class="st6 st7">facial hair</text>
</g>
<g id="_x36_9" transform="translate(874.0872867176746,1316.8264703730256)">
	<circle class="st9" cx="-350.4" cy="-891.2" r="29">
	<title>eyebrows</title>
	</circle>
	<text transform="matrix(1 0 0 1 -365.3002 -888.3713)" class="st6 st7">eyebrows</text>
</g>
<g id="_x36_8" transform="translate(1103.6792595097913,1385.2569110420777)">
	<circle class="st9" cx="-446.9" cy="-919.9" r="29">
	<title>bushy eyebrows</title>
	</circle>
	<text transform="matrix(1 0 0 1 -472.0347 -917.13)" class="st6 st7">bushy eyebrows</text>
</g>
<g id="_x37_4" transform="translate(917.6731969681273,1519.6148885097612)">
	<circle class="st9" cx="-368.7" cy="-976.4" r="29">
	<title>thin eyebrows</title>
	</circle>
	<text transform="matrix(1 0 0 1 -390.1918 -973.5944)" class="st6 st7">thin eyebrows</text>
</g>
<g id="_x32_7" transform="translate(679.9714866274442,1358.0706818302249)">
	<circle class="st9" cx="-268.8" cy="-908.5" r="29">
	<title>mustache</title>
	</circle>
	<text transform="matrix(1 0 0 1 -283.9158 -905.7045)" class="st6 st7">mustache</text>
</g>
<g id="_x33_3" transform="translate(488.33563957605344,1250.7706917534167)">
	<circle class="st9" cx="-188.3" cy="-863.4" r="29">
	<title>beard</title>
	</circle>
	<text transform="matrix(1 0 0 1 -197.196 -860.6116)" class="st6 st7">beard</text>
</g>
<g id="_x37_2" transform="translate(224.86698101371573,1182.8345866148986)">
	<circle class="st9" cx="-77.6" cy="-834.9" r="29">
	<title>five o clock shadow</title>
	</circle>
	<text transform="matrix(1 0 0 1 -100.3865 -832.0612)" class="st6 st7">five o clock s...</text>
</g>
<g id="_x33_2" transform="translate(316.9484005508426,1418.2070487092735)">
	<circle class="st9" cx="-116.3" cy="-933.8" r="29">
	<title>goatee</title>
	</circle>
	<text transform="matrix(1 0 0 1 -126.9123 -930.9766)" class="st6 st7">goatee</text>
</g>
<g id="_x32_" transform="translate(715.3895342966082,926.3928207494387)">
	<circle class="st9" cx="-283.7" cy="-727.1" r="29">
	<title>hair</title>
	</circle>
	<text transform="matrix(1 0 0 1 -289.5194 -724.2908)" class="st6 st7">hair</text>
</g>
<g id="_x31_9" transform="translate(388.59493558985116,928.9761000287543)">
	<circle class="st9" cx="-146.4" cy="-728.2" r="29">
	<title>hair color</title>
	</circle>
	<text transform="matrix(1 0 0 1 -160.6892 -725.3765)" class="st6 st7">hair color</text>
</g>
<g id="_x35_0" transform="translate(360.086391141258,680.372555177373)">
	<circle class="st9" cx="-134.4" cy="-623.7" r="29">
	<title>brown hair</title>
	</circle>
	<text transform="matrix(1 0 0 1 -150.643 -620.8999)" class="st6 st7">brown hair</text>
</g>
<g id="_x31_8" transform="translate(213.46911446819936,754.9039897023977)">
	<circle class="st9" cx="-72.8" cy="-655" r="29">
	<title>black hair</title>
	</circle>
	<text transform="matrix(1 0 0 1 -87.6732 -652.2224)" class="st6 st7">black hair</text>
</g>
<g id="_x35_2" transform="translate(106.36950817783386,856.0948115582954)">
	<circle class="st9" cx="-27.8" cy="-697.5" r="29">
	<title>blond hair</title>
	</circle>
	<text transform="matrix(1 0 0 1 -43.0551 -694.7481)" class="st6 st7">blond hair</text>
</g>
<g id="_x34_8" transform="translate(123.14875379456033,1004.6636059323645)">
	<circle class="st9" cx="-34.8" cy="-760" r="29">
	<title>gray hair</title>
	</circle>
	<text transform="matrix(1 0 0 1 -48.3616 -757.1841)" class="st6 st7">gray hair</text>
</g>
<g id="_x33_6" transform="translate(969.2792752227197,852.8048022394435)">
	<circle class="st9" cx="-390.4" cy="-696.2" r="29">
	<title>head hair</title>
	</circle>
	<text transform="matrix(1 0 0 1 -404.9219 -693.3654)" class="st6 st7">head hair</text>
</g>
<g id="_x38_2" transform="translate(1326.2670255402684,1389.2287005021158)">
	<circle class="st9" cx="-540.4" cy="-921.6" r="29">
	<title>receding hairline</title>
	</circle>
	<text transform="matrix(1 0 0 1 -565.9672 -918.7991)" class="st6 st7">receding hairline</text>
</g>
<g id="_x38_0" transform="translate(1543.3499122648514,1348.617473858101)">
	<circle class="st9" cx="-631.7" cy="-904.5" r="29">
	<title>bald</title>
	</circle>
	<text transform="matrix(1 0 0 1 -638.2483 -901.7317)" class="st6 st7">bald</text>
</g>
<g id="_x37_8" transform="translate(1461.3855419986537,929.079155431861)">
	<circle class="st9" cx="-597.2" cy="-728.2" r="29">
	<title>long hair</title>
	</circle>
	<text transform="matrix(1 0 0 1 -610.5691 -725.42)" class="st6 st7">long hair</text>
</g>
<g id="_x39_4" transform="translate(1302.7251437807752,790.7300983433422)">
	<circle class="st9" cx="-530.5" cy="-670.1" r="29">
	<title>bangs</title>
	</circle>
	<text transform="matrix(1 0 0 1 -540.0259 -667.278)" class="st6 st7">bangs</text>
</g>
<g id="_x38_6" transform="translate(532.2151177284545,822.4504381200388)">
	<circle class="st9" cx="-206.7" cy="-683.4" r="29">
	<title>straight hair</title>
	</circle>
	<text transform="matrix(1 0 0 1 -224.9133 -680.6086)" class="st6 st7">straight hair</text>
</g>
<g id="_x35_4" transform="translate(563.436919415263,651.0817806571442)">
	<circle class="st9" cx="-219.9" cy="-611.4" r="29">
	<title>curly hair</title>
	</circle>
	<text transform="matrix(1 0 0 1 -233.972 -608.5906)" class="st6 st7">curly hair</text>
</g>
<g id="_x33_7" transform="translate(784.4343888992184,707.9080230156554)">
	<circle class="st9" cx="-312.7" cy="-635.3" r="29">
	<title>hair texture</title>
	</circle>
	<text transform="matrix(1 0 0 1 -330.1365 -632.472)" class="st6 st7">hair texture</text>
</g>
<g id="_x34_6" transform="translate(1028.2229510004338,669.4717782227046)">
	<circle class="st9" cx="-415.2" cy="-619.1" r="29">
	<title>wavy hair</title>
	</circle>
	<text transform="matrix(1 0 0 1 -429.8801 -616.319)" class="st6 st7">wavy hair</text>
</g>
<g id="_x37_6" transform="translate(1265.7947970222049,986.3174675330099)">
	<circle class="st9" cx="-515" cy="-752.3" r="29">
	<title>haircut</title>
	</circle>
	<text transform="matrix(1 0 0 1 -525.4696 -749.4742)" class="st6 st7">haircut</text>
</g>
<g id="_x37_7" transform="translate(1330.6198425371886,1185.694240927362)">
	<circle class="st9" cx="-542.3" cy="-836.1" r="29">
	<title>balding</title>
	</circle>
	<text transform="matrix(1 0 0 1 -553.49 -833.2626)" class="st6 st7">balding</text>
</g>
<g id="_x37_0" transform="translate(1037.9565682740063,1155.299381666208)">
	<circle class="st9" cx="-419.3" cy="-823.3" r="29">
	<title>sideburn</title>
	</circle>
	<text transform="matrix(1 0 0 1 -432.6226 -820.4894)" class="st6 st7">sideburn</text>
</g>
</svg>
